<?xml version="1.0" standalone="no"?>
<!DOCTYPE svg PUBLIC "-//W3C//DTD SVG 20010904//EN"
 "http://www.w3.org/TR/2001/REC-SVG-20010904/DTD/svg10.dtd">
<svg version="1.0" xmlns="http://www.w3.org/2000/svg"
 width="460.000000pt" height="460.000000pt" viewBox="0 0 460.000000 460.000000"
 preserveAspectRatio="xMidYMid meet">
<metadata>
Created by potrace 1.14, written by Peter Selinger 2001-2017
</metadata>
<g transform="translate(0.000000,460.000000) scale(0.100000,-0.100000)"
fill="#000000" stroke="none">
<path d="M2390 4373 c-14 -2 -65 -12 -115 -23 -49 -11 -112 -22 -140 -26 -87
-12 -181 -50 -287 -117 -145 -90 -226 -130 -253 -123 -21 5 -23 1 -30 -42 -8
-54 -26 -78 -65 -87 -20 -4 -30 -14 -35 -33 -3 -15 -20 -44 -36 -65 -52 -65
-63 -103 -48 -166 12 -48 11 -57 -5 -85 -10 -17 -45 -83 -78 -146 -56 -110
-60 -119 -65 -205 -8 -143 -8 -178 1 -386 l9 -196 -32 -64 c-31 -63 -31 -66
-25 -164 5 -80 2 -122 -15 -212 -19 -97 -20 -121 -10 -175 6 -35 14 -106 18
-159 8 -109 22 -140 77 -166 41 -20 57 -64 74 -213 14 -123 23 -159 60 -258
20 -50 50 -105 80 -142 54 -68 70 -102 50 -108 -7 -3 -18 -12 -26 -21 -7 -9
-44 -50 -83 -91 -118 -127 -200 -265 -246 -412 -31 -99 -44 -112 -158 -152
-34 -12 -107 -45 -162 -72 -55 -28 -136 -66 -180 -84 -44 -19 -91 -42 -105
-51 -14 -9 -52 -30 -85 -47 -33 -17 -78 -42 -100 -56 l-40 -25 2133 -1 2132 0
0 103 0 102 -88 57 c-48 31 -105 60 -127 64 -110 19 -234 75 -424 191 -41 24
-142 74 -225 110 -83 35 -194 85 -248 111 -93 45 -97 49 -122 102 -15 30 -35
86 -46 124 -11 38 -27 77 -36 87 -21 23 -15 68 23 179 16 47 35 119 42 160 7
41 19 106 27 144 8 38 14 98 14 135 0 36 5 108 10 160 6 52 8 96 6 98 -2 3 -7
-22 -11 -54 -3 -32 -15 -85 -26 -118 -11 -33 -25 -82 -31 -108 -6 -27 -17 -51
-25 -54 -7 -3 -13 -12 -13 -20 0 -8 5 -11 10 -8 6 3 10 1 10 -4 0 -6 -4 -11
-10 -11 -5 0 -10 -9 -10 -20 0 -11 -5 -20 -11 -20 -7 0 -9 -9 -6 -21 3 -12 3
-35 0 -51 -5 -27 -7 -28 -24 -12 -17 16 -19 15 -28 -10 -6 -14 -15 -26 -20
-26 -6 0 -8 -7 -5 -15 7 -18 -7 -20 -24 -3 -9 9 -13 7 -18 -5 -3 -9 -4 -24 0
-32 5 -14 -30 -42 -48 -37 -4 2 -14 -2 -22 -9 -8 -6 -21 -8 -31 -4 -10 5 -24
7 -30 6 -18 -3 -16 9 7 47 11 18 20 39 20 47 0 8 4 15 9 15 5 0 11 15 14 32 6
38 -9 61 -23 38 -7 -11 -10 -11 -10 -2 0 7 -4 11 -9 7 -5 -3 -16 2 -24 10 -9
8 -25 15 -36 15 -11 0 -25 9 -31 21 -7 12 -18 18 -26 15 -8 -3 -26 1 -39 10
-21 14 -24 14 -28 -3 -3 -15 -6 -14 -15 7 -10 24 -11 24 -11 3 -1 -24 -14 -37
-25 -25 -4 4 -29 8 -54 9 -61 2 -95 8 -120 22 -22 12 -102 4 -102 -9 0 -11
-75 -23 -98 -15 -24 7 -35 52 -15 59 8 4 31 6 51 6 59 0 66 10 69 97 2 51 8
81 16 88 8 6 17 20 21 33 9 26 42 47 51 32 10 -16 45 -11 51 8 3 9 14 36 26
59 27 55 20 87 -30 141 l-39 43 -8 -33 c-4 -18 -9 -27 -12 -20 -2 6 -17 12
-31 12 -17 0 -43 15 -69 38 -88 78 -111 97 -117 99 -4 1 -10 3 -15 5 -12 4
-17 142 -7 206 6 43 4 62 -9 92 -16 36 -16 42 0 111 12 55 24 82 47 106 17 17
27 36 24 42 -4 6 -3 19 3 29 13 24 -4 53 -26 45 -11 -4 -14 -3 -9 5 4 7 -4 22
-18 36 -14 13 -26 28 -26 35 0 6 -7 11 -15 11 -8 0 -15 7 -15 15 0 18 -5 18
-31 5 -16 -9 -21 -7 -29 12 l-9 23 -7 -22 c-7 -27 -32 -30 -41 -7 -5 12 -14
15 -44 10 -21 -3 -39 -2 -41 4 -3 10 -130 16 -145 7 -5 -3 -22 3 -39 14 -16
11 -46 19 -70 19 -22 0 -44 4 -50 9 -5 5 -27 11 -48 13 -37 3 -40 5 -44 38 -2
19 -8 42 -13 51 -5 10 -9 29 -9 42 0 14 -7 30 -15 37 -18 15 -19 37 -2 43 7 4
6 6 -4 6 -9 1 -20 8 -23 17 -11 27 -6 121 8 176 7 29 11 68 9 86 -7 45 36 108
80 118 18 3 82 36 142 72 78 47 122 66 150 68 22 2 68 7 102 12 34 5 60 5 57
1 -7 -12 62 -22 102 -15 36 7 131 -8 171 -26 12 -6 40 -8 63 -5 31 4 42 1 49
-12 9 -15 104 -48 125 -43 5 2 16 -4 25 -12 9 -8 39 -20 66 -27 28 -6 55 -15
60 -19 6 -5 38 -19 72 -33 62 -25 193 -111 193 -127 0 -5 20 -28 44 -52 24
-24 55 -66 69 -94 14 -27 44 -72 66 -99 79 -95 88 -161 98 -655 7 -375 15
-417 28 -145 4 77 14 174 22 215 8 41 17 88 19 103 2 15 11 56 20 90 12 47 15
86 10 162 -3 55 -2 117 3 138 6 24 5 39 -1 43 -7 4 -10 81 -8 208 3 341 -6
382 -100 491 -22 26 -49 63 -60 83 -10 21 -56 81 -101 135 -74 90 -89 102
-155 132 -41 19 -88 45 -106 59 -40 30 -77 45 -143 57 -49 9 -399 40 -420 38
-5 -1 -21 -4 -35 -6z m78 -25 c-20 -19 -58 -39 -58 -31 0 15 34 43 52 43 16 0
17 -2 6 -12z m297 -46 c-8 -9 -55 -11 -55 -3 0 14 10 18 36 13 14 -2 22 -7 19
-10z m70 -2 c-3 -5 -13 -10 -21 -10 -8 0 -14 5 -14 10 0 6 9 10 21 10 11 0 17
-4 14 -10z m-95 -60 c0 -5 -17 -10 -38 -10 -21 0 -43 -5 -50 -12 -9 -9 -12 -9
-12 1 0 8 -8 10 -22 6 -21 -5 -21 -5 2 9 28 17 120 22 120 6z m80 -19 c0 -9
-71 -24 -78 -16 -2 2 -1 8 3 14 7 13 75 15 75 2z m30 -21 c0 -5 -4 -10 -10
-10 -5 0 -10 5 -10 10 0 6 5 10 10 10 6 0 10 -4 10 -10z m110 -10 c-20 -13
-40 -13 -40 0 0 6 12 10 28 10 21 0 24 -2 12 -10z m0 -58 c0 -16 -67 -34 -140
-38 -74 -4 -75 -3 -35 10 90 31 175 44 175 28z m0 -82 c0 -5 -8 -10 -17 -10
-15 0 -16 2 -3 10 19 12 20 12 20 0z m85 1 c3 -5 0 -13 -6 -17 -7 -4 -9 -3 -5
4 3 5 0 13 -6 15 -9 4 -10 6 -1 6 6 1 14 -3 18 -8z m-135 -13 c0 -4 -12 -8
-27 -8 -19 0 -24 3 -15 8 17 11 42 11 42 0z m65 -28 c-6 -10 -65 -19 -65 -9 0
9 52 28 63 22 4 -2 5 -8 2 -13z m62 -16 c2 -5 -11 -10 -29 -10 -29 -1 -30 0
-13 12 20 15 37 14 42 -2z m-741 -1571 c-12 -104 -40 -186 -66 -195 -6 -2 -12
-10 -14 -18 -2 -8 -6 -22 -9 -30 -10 -25 -19 -82 -22 -145 -1 -35 -14 -89 -30
-130 -22 -59 -26 -79 -20 -127 5 -47 3 -58 -8 -58 -8 0 -17 -7 -21 -15 -3 -8
-12 -15 -21 -15 -8 0 -14 -6 -13 -12 2 -9 -13 -13 -50 -13 -40 0 -56 -4 -63
-17 -6 -10 -20 -18 -32 -17 -20 0 -21 1 -3 8 25 10 12 17 -39 20 -22 2 -40 4
-41 4 -1 1 2 34 7 72 7 63 6 72 -12 87 -10 9 -19 23 -19 32 0 10 -9 16 -22 16
-24 0 -148 120 -148 144 0 7 -11 24 -25 37 -38 37 -34 82 13 127 46 45 92 72
125 72 14 0 27 7 31 15 3 9 18 15 36 15 16 0 30 4 30 9 0 5 17 12 38 16 20 4
42 10 47 14 6 4 37 15 70 25 115 35 170 57 204 84 35 27 58 40 74 41 5 1 6
-20 3 -46z m24 -242 c-5 -11 -20 -27 -31 -35 -12 -8 -32 -30 -45 -50 -14 -20
-29 -36 -35 -36 -14 0 26 57 73 103 42 41 54 47 38 18z m377 -797 c28 -7 62
-14 76 -14 33 0 77 -23 111 -59 18 -19 43 -32 68 -36 28 -5 38 -11 34 -21 -3
-8 -1 -14 4 -14 17 0 11 -49 -7 -59 -14 -7 -15 -13 -6 -34 10 -21 7 -35 -23
-96 -19 -39 -39 -71 -44 -71 -6 0 -10 -6 -10 -12 0 -7 -18 -33 -40 -58 -39
-44 -40 -44 -100 -42 l-60 2 0 -32 c-1 -30 -2 -31 -14 -15 -7 9 -20 17 -28 17
-8 0 -20 6 -26 12 -10 10 -15 10 -21 -1 -6 -9 -33 -14 -76 -16 -43 -2 -71 -8
-77 -17 -7 -11 -11 -10 -21 3 -16 22 -55 33 -70 21 -12 -10 -57 17 -57 35 0 4
-16 19 -35 32 -19 13 -35 30 -35 38 0 8 -4 12 -9 9 -21 -13 -41 7 -41 40 0 34
0 34 48 35 26 1 67 1 92 0 93 -4 154 0 161 10 3 6 19 10 35 8 16 -1 43 4 59
11 17 7 55 17 85 21 135 18 156 26 166 65 9 34 -14 56 -63 59 -44 3 -73 13
-73 26 0 11 -56 40 -63 32 -4 -3 -13 -1 -20 5 -7 6 -26 10 -42 9 -26 -2 -31 3
-41 33 -10 31 -17 36 -55 43 -24 4 -57 9 -73 10 -16 1 -31 7 -33 14 -4 10 19
15 132 26 45 5 143 -5 192 -19z m573 6 c0 -5 -4 -10 -10 -10 -5 0 -10 5 -10
10 0 6 5 10 10 10 6 0 10 -4 10 -10z m-293 -1246 c3 -8 1 -20 -6 -27 -8 -8
-11 -8 -11 2 0 7 -4 9 -10 6 -5 -3 -10 0 -10 8 0 28 27 37 37 11z"/>
<path d="M2825 2900 c-19 -20 -41 -28 -30 -10 9 15 -2 12 -31 -7 -20 -13 -27
-14 -34 -4 -5 9 -10 9 -14 3 -3 -6 0 -12 6 -15 8 -2 1 -10 -14 -17 -16 -7 -28
-16 -28 -20 0 -4 -14 -13 -30 -20 -17 -7 -36 -22 -41 -33 -6 -11 -11 -73 -11
-139 0 -111 2 -121 23 -144 33 -35 119 -90 154 -98 37 -9 113 -45 121 -57 3
-5 29 -20 58 -34 83 -39 206 -30 206 16 0 10 8 25 17 35 16 15 16 17 -1 30
-10 7 -15 17 -11 23 8 14 35 14 35 1 0 -27 88 1 131 42 35 33 62 194 40 243
-4 11 -19 44 -32 73 -32 74 -81 122 -122 121 -18 0 -63 6 -102 14 -38 8 -115
15 -171 16 -89 1 -103 -1 -119 -19z m337 -297 c43 -25 47 -43 9 -43 -21 0 -31
5 -31 15 0 9 -10 15 -27 16 -54 2 -93 15 -93 31 0 17 106 2 142 -19z m-114
-156 c23 0 42 -3 42 -8 0 -12 -30 -18 -75 -14 -22 2 -52 3 -67 4 -19 1 -28 6
-28 17 0 14 7 15 43 8 23 -4 61 -8 85 -7z m92 -63 c0 -2 -7 -4 -15 -4 -8 0
-15 4 -15 10 0 5 7 7 15 4 8 -4 15 -8 15 -10z"/>
</g>
</svg>
